<svg width="467" height="153" viewBox="0 0 467 153" fill="none" xmlns="http://www.w3.org/2000/svg">
<path d="M409.618 21.0689C407.164 21.4914 404.933 24.0142 404.014 27.4145C403.282 30.11 403.971 33.2762 405.524 34.3712C406.387 34.9872 407.675 35.1295 408.776 34.7524C409.891 34.3634 411.292 33.2413 412.06 32.1131C414.383 28.6887 414.679 24.5941 412.779 22.2393C411.945 21.2052 410.942 20.8364 409.618 21.0689Z" fill="#F0EDED"/>
<path d="M419.814 29.1996C417.619 29.6028 415.268 31.2924 413.846 33.495C413.187 34.5122 412.886 35.3696 412.71 36.7094C412.561 37.8419 412.573 38.0547 412.861 38.9403C413.412 40.6937 414.221 41.3021 416.221 41.462C417.234 41.5507 417.522 41.5076 418.621 41.1443C419.65 40.7992 420.089 40.5384 421.143 39.6904C422.467 38.6417 423.191 37.7463 424.056 36.0832C424.597 35.0489 424.854 33.2986 424.64 32.1564C424.431 31.0851 423.554 29.8619 422.723 29.5178C421.881 29.158 420.725 29.0346 419.814 29.1996Z" fill="#F0EDED"/>
<path d="M396.103 25.8738C394.661 26.1878 393.183 27.7915 392.302 29.987C391.92 30.9454 391.593 33.122 391.691 34.121C391.884 36.0342 392.986 38.2043 394.115 38.8444C395.268 39.502 396.965 39.1963 398.172 38.1167C399.562 36.8665 400.465 35.0257 400.746 32.885C401.227 29.2249 399.754 26.1856 397.357 25.8704C396.96 25.8136 396.394 25.8169 396.103 25.8738Z" fill="#F0EDED"/>
<path d="M401.332 40.2296C399.468 40.2582 397.157 40.9263 394.773 42.1469C392.116 43.4972 389.552 45.5785 389.014 46.7962C388.184 48.7037 388.689 50.704 390.29 51.8481C391.128 52.4465 392.174 52.8919 394.067 53.4586C396.011 54.0466 397.023 54.4449 397.961 55.0013C399.484 55.9231 400.15 56.6941 401.786 59.4192C402.482 60.5883 403.26 61.7411 403.512 61.9743C404.924 63.3304 406.91 63.6994 408.118 62.8169C409.594 61.7337 410.545 59.0132 410.748 55.2145C410.981 51.0825 410.792 48.9305 409.996 46.3819C409.408 44.4964 408.506 43.157 407.119 42.128C405.585 40.9796 403.182 40.199 401.332 40.2296Z" fill="#F0EDED"/>
<path d="M420.127 43.5281C418.678 43.6864 417.319 44.2798 415.934 45.39C414.217 46.7624 413.447 47.9045 413.142 49.5072C412.872 50.946 412.988 51.7083 413.591 52.6531C413.96 53.2266 414.25 53.4793 414.805 53.7698C417.673 55.2218 421.796 53.6876 423.957 50.3667C424.633 49.3237 424.672 49.2308 424.839 47.9602C424.999 46.7448 424.983 46.5595 424.715 45.8316C424.545 45.3851 424.223 44.8606 423.984 44.6293C423.081 43.8105 421.587 43.3855 420.127 43.5281Z" fill="#F0EDED"/>
<path d="M429.86 90.8203C429.005 90.0024 428.381 89.7142 427.048 89.4926C425.706 89.2596 424.008 89.4642 422.499 90.0412C421.297 90.4918 419.308 91.9746 418.695 92.8771C417.775 94.1959 417.317 95.6848 417.511 96.6875C417.689 97.6675 418.457 98.6701 419.438 99.2401C422.713 101.148 428.367 99.3125 430.281 95.7287C431.354 93.7472 431.204 92.1127 429.86 90.8203Z" fill="#F0EDED"/>
<path d="M431.468 104.347C429.36 102.203 425.177 101.486 422.217 102.751C421.076 103.242 419.916 104.209 419.396 105.128C418.826 106.118 418.714 107.417 419.117 108.366C420.412 111.458 424.769 113.005 428.892 111.832C430.755 111.317 432.261 109.92 432.744 108.276C433.08 107.135 432.523 105.41 431.468 104.347Z" fill="#F0EDED"/>
<path d="M417.248 83.7839C415.058 82.0948 410.817 82.9965 408.411 85.6457C407.06 87.1494 406.271 89.2101 406.513 90.6907C406.612 91.2674 406.727 91.5071 407.197 92.0983C407.883 92.9567 408.547 93.3518 409.634 93.5006C411.436 93.7837 413.153 93.3427 414.914 92.1499C416.683 90.9686 417.84 89.4212 418.36 87.5436C418.677 86.3998 418.102 84.4317 417.248 83.7839Z" fill="#F0EDED"/>
<path d="M410.038 96.8703C408.037 94.9545 404.188 93.2171 400.682 92.6281C398.509 92.2608 397.693 92.3387 396.657 93.0078C395.323 93.8649 394.71 95.0571 394.823 96.5651C394.924 97.7912 395.283 98.8424 396.354 101.006C398.407 105.109 398.57 106.545 397.488 110.912C396.861 113.451 396.804 113.99 396.99 114.981C397.52 117.77 399.515 118.766 402.373 117.664C403.435 117.249 405.268 115.97 406.964 114.466C409.742 112.002 411.058 110.423 412.234 108.16C413.368 105.979 413.55 103.584 412.773 101.201C412.38 100.004 410.959 97.7594 410.038 96.8703Z" fill="#F0EDED"/>
<path d="M420.998 113.778C419.359 112.535 417.549 111.881 415.621 111.845C411.917 111.782 409.44 114.279 410.423 117.107C411.224 119.404 413.306 120.984 416.194 121.486C417.386 121.693 417.979 121.696 419.011 121.526C420.28 121.316 420.342 121.287 421.291 120.563C422.794 119.425 423.285 118.272 422.909 116.788C422.683 115.929 421.628 114.267 420.998 113.778Z" fill="#F0EDED"/>
<path d="M356.054 60.8228C354.367 60.9915 352.886 61.9092 351.669 63.5587C349.581 66.3578 348.972 69.6994 350.071 72.3662C350.628 73.7364 351.231 74.2365 352.596 74.5016C353.489 74.675 353.763 74.6574 354.439 74.4483C357.996 73.31 360.779 67.9801 359.824 64.1219C359.27 61.9013 357.837 60.6446 356.054 60.8228Z" fill="#F0EDED"/>
<path d="M365.967 69.428C363.162 69.6206 359.982 71.9949 358.715 74.8399C358.17 76.0671 357.996 76.9691 358.09 78.0368C358.179 79.0609 358.541 79.9253 359.168 80.6C359.6 81.0669 359.777 81.1437 360.819 81.3888C361.717 81.6058 362.187 81.6403 362.921 81.5561C365.334 81.2733 367.812 79.4858 369.371 76.91C369.892 76.0469 370.019 75.717 370.207 74.6617C370.489 73.1566 370.385 72.2148 369.817 71.2111C369.59 70.8124 369.17 70.348 368.893 70.1523C368.211 69.7081 366.848 69.3581 365.967 69.428Z" fill="#F0EDED"/>
<path d="M342.202 64.9385C340.081 65.3348 338.051 67.9609 337.508 71.0036C337.124 73.1553 337.445 75.0893 338.446 76.631C339.106 77.6525 339.798 78.113 340.867 78.2073C341.853 78.3137 342.679 78.0204 343.677 77.2216C345.087 76.0916 346.036 74.3475 346.425 72.1683C346.804 70.044 346.523 68.1176 345.622 66.6238C344.934 65.455 343.409 64.7192 342.202 64.9385Z" fill="#F0EDED"/>
<path d="M345.513 79.578C344.165 79.6708 341.106 80.6081 339.336 81.4697C337.626 82.3004 335.138 84.0718 334.455 84.9318C333.185 86.5712 333.349 88.9998 334.823 90.4064C335.52 91.0665 336.606 91.6035 339 92.4941C343.28 94.0771 344.151 94.8278 346.23 98.706C347.852 101.716 348.6 102.471 350.309 102.788C353.044 103.291 354.841 100.521 355.406 94.9154C356.231 86.8646 354.819 82.6763 350.585 80.6058C349.149 79.9014 347.038 79.4772 345.513 79.578Z" fill="#F0EDED"/>
<path d="M365.712 83.8006C363.517 83.7714 361.17 84.9036 359.427 86.8339C358.617 87.7257 358.149 88.6701 357.944 89.8214C357.538 92.0965 358.482 93.5843 360.752 94.2523C363.06 94.9416 366.317 93.731 368.297 91.4638C370.07 89.4401 370.453 87.0614 369.301 85.3769C368.676 84.4616 367.191 83.8044 365.712 83.8006Z" fill="#F0EDED"/>
<path d="M290.209 90.8237C288.57 90.3761 286.877 90.7056 285.189 91.8168C282.306 93.6947 280.632 96.613 280.784 99.5119C280.855 100.998 281.257 101.685 282.451 102.424C283.231 102.907 283.495 102.99 284.198 103.036C287.913 103.245 292.284 99.2413 292.66 95.2758C292.872 92.9918 291.942 91.2972 290.209 90.8237Z" fill="#F0EDED"/>
<path d="M296.677 102.464C293.981 101.638 290.212 102.724 288.084 104.94C287.167 105.896 286.706 106.68 286.443 107.717C286.189 108.71 286.243 109.652 286.609 110.511C286.861 111.104 287.001 111.24 287.899 111.845C288.671 112.371 289.1 112.572 289.818 112.757C292.177 113.358 295.092 112.57 297.406 110.712C298.179 110.089 298.407 109.825 298.932 108.902C299.693 107.59 299.906 106.668 299.704 105.522C299.622 105.066 299.381 104.479 299.186 104.196C298.693 103.534 297.528 102.716 296.677 102.464Z" fill="#F0EDED"/>
<path d="M275.846 89.7115C273.724 89.3214 270.952 91.0577 269.439 93.7193C268.369 95.6017 268.032 97.5327 268.464 99.3399C268.746 100.536 269.244 101.217 270.217 101.69C271.107 102.144 271.98 102.165 273.18 101.774C274.877 101.22 276.343 99.9234 277.427 98.017C278.483 96.1587 278.855 94.249 278.501 92.5226C278.241 91.1782 277.052 89.9392 275.846 89.7115Z" fill="#F0EDED"/>
<path d="M274.13 104.646C272.835 104.249 269.652 104.03 267.706 104.203C265.827 104.369 262.905 105.138 261.98 105.7C260.247 106.783 259.6 109.122 260.519 110.972C260.956 111.842 261.798 112.736 263.753 114.432C267.249 117.455 267.82 118.472 268.492 122.86C269.022 126.268 269.475 127.245 270.975 128.157C273.377 129.611 275.979 127.656 278.359 122.597C281.79 115.336 281.846 110.897 278.554 107.432C277.438 106.255 275.596 105.099 274.13 104.646Z" fill="#F0EDED"/>
<path d="M291.698 115.868C289.647 115.052 287.07 115.271 284.797 116.457C283.741 117.003 282.991 117.722 282.419 118.729C281.287 120.719 281.682 122.455 283.594 123.898C285.533 125.375 288.99 125.408 291.597 123.991C293.929 122.728 295.074 120.633 294.547 118.637C294.263 117.553 293.085 116.403 291.698 115.868Z" fill="#F0EDED"/>
<path d="M221.752 116.068C220.473 114.909 218.815 114.421 216.831 114.636C213.449 114.986 210.708 116.827 209.614 119.496C209.046 120.862 209.115 121.663 209.871 122.878C210.366 123.672 210.567 123.868 211.178 124.235C214.419 126.141 220.038 124.574 222.059 121.193C223.219 119.244 223.105 117.294 221.752 116.068Z" fill="#F0EDED"/>
<path d="M222.607 129.496C220.541 127.507 216.701 126.738 213.852 127.739C212.625 128.173 211.878 128.662 211.202 129.47C210.553 130.242 210.202 131.112 210.165 132.051C210.139 132.7 210.207 132.886 210.755 133.843C211.223 134.672 211.523 135.051 212.087 135.549C213.946 137.179 216.895 137.822 219.758 137.226C220.716 137.025 221.032 136.894 221.895 136.309C223.134 135.485 223.717 134.758 224.022 133.637C224.142 133.19 224.176 132.553 224.12 132.208C223.959 131.387 223.263 130.114 222.607 129.496Z" fill="#F0EDED"/>
<path d="M209.35 108.427C207.613 107.096 204.391 107.37 201.904 109.056C200.146 110.248 199.024 111.823 198.643 113.643C198.388 114.846 198.545 115.686 199.217 116.56C199.822 117.379 200.595 117.802 201.837 118.007C203.593 118.295 205.459 117.811 207.239 116.603C208.976 115.426 210.12 113.886 210.536 112.175C210.874 110.85 210.334 109.189 209.35 108.427Z" fill="#F0EDED"/>
<path d="M201.469 121.021C200.476 120.065 197.717 118.397 195.899 117.652C194.143 116.931 191.198 116.269 190.13 116.345C188.116 116.514 186.543 118.311 186.582 120.395C186.604 121.376 186.979 122.568 188.011 124.992C189.862 129.32 189.941 130.495 188.68 134.739C187.708 138.039 187.699 139.125 188.656 140.636C190.192 143.051 193.355 142.502 197.637 139.068C203.796 134.147 205.732 130.193 204.251 125.565C203.751 123.993 202.591 122.105 201.469 121.021Z" fill="#F0EDED"/>
<path d="M212.452 139.206C210.96 137.526 208.556 136.531 206.015 136.542C204.837 136.544 203.859 136.841 202.919 137.479C201.059 138.74 200.676 140.478 201.777 142.656C202.888 144.877 205.973 146.506 208.911 146.442C211.538 146.388 213.454 145.039 213.83 143.007C214.035 141.904 213.468 140.328 212.452 139.206Z" fill="#F0EDED"/>
<path d="M128.727 96.7399C127.033 96.6872 125.454 97.4046 124.049 98.8823C121.642 101.387 120.637 104.623 121.409 107.412C121.797 108.844 122.336 109.419 123.658 109.86C124.523 110.149 124.798 110.167 125.493 110.048C129.158 109.382 132.558 104.457 132.073 100.505C131.788 98.2294 130.518 96.7957 128.727 96.7399Z" fill="#F0EDED"/>
<path d="M137.532 106.571C134.726 106.396 131.287 108.337 129.689 110.994C129.001 112.141 128.72 113.013 128.686 114.085C128.652 115.112 128.907 116.017 129.448 116.768C129.822 117.288 129.987 117.387 130.992 117.766C131.858 118.099 132.319 118.194 133.058 118.207C135.486 118.241 138.158 116.79 140.014 114.438C140.634 113.65 140.799 113.339 141.112 112.317C141.572 110.86 141.582 109.912 141.139 108.842C140.961 108.417 140.6 107.901 140.348 107.671C139.725 107.142 138.415 106.617 137.532 106.571Z" fill="#F0EDED"/>
<path d="M114.491 99.0166C112.339 99.1332 110.01 101.474 109.108 104.422C108.469 106.507 108.555 108.467 109.364 110.127C109.897 111.227 110.528 111.774 111.578 112.007C112.543 112.241 113.398 112.058 114.484 111.396C116.018 110.459 117.169 108.852 117.815 106.74C118.446 104.682 118.398 102.734 117.682 101.135C117.14 99.8854 115.714 98.9564 114.491 99.0166Z" fill="#F0EDED"/>
<path d="M116.022 113.973C114.675 113.89 111.527 114.42 109.668 115.044C107.872 115.646 105.191 117.079 104.41 117.843C102.954 119.304 102.826 121.735 104.12 123.322C104.732 124.068 105.745 124.743 108.014 125.938C112.071 128.067 112.846 128.926 114.443 133.045C115.693 136.242 116.344 137.089 118.002 137.627C120.655 138.483 122.77 135.968 124.002 130.481C125.784 122.601 124.885 118.261 120.931 115.655C119.591 114.768 117.548 114.072 116.022 113.973Z" fill="#F0EDED"/>
<path d="M135.558 120.797C133.384 120.482 130.92 121.299 128.959 122.987C128.048 123.766 127.471 124.642 127.13 125.758C126.455 127.962 127.213 129.561 129.385 130.52C131.592 131.505 134.969 130.729 137.205 128.738C139.206 126.961 139.871 124.651 138.93 122.829C138.42 121.84 137.025 120.994 135.558 120.797Z" fill="#F0EDED"/>
<path d="M28.0252 127.597C26.3316 127.544 24.7526 128.262 23.3471 129.739C20.9405 132.244 19.9356 135.48 20.7072 138.269C21.0956 139.701 21.6343 140.276 22.9567 140.717C23.8214 141.006 24.0961 141.024 24.7913 140.905C28.4566 140.239 31.8566 135.314 31.371 131.362C31.0868 129.086 29.816 127.653 28.0252 127.597Z" fill="#F0EDED"/>
<path d="M36.8301 137.427C34.0246 137.252 30.5854 139.193 28.9869 141.85C28.2995 142.997 28.0185 143.869 27.9846 144.941C27.9502 145.968 28.2058 146.873 28.7465 147.624C29.12 148.144 29.2858 148.243 30.2908 148.622C31.156 148.955 31.6173 149.05 32.3563 149.063C34.7844 149.097 37.4567 147.646 39.3121 145.294C39.9319 144.506 40.0972 144.195 40.4102 143.173C40.8702 141.716 40.8802 140.768 40.437 139.698C40.2589 139.273 39.8982 138.758 39.6464 138.527C39.0238 137.998 37.713 137.473 36.8301 137.427Z" fill="#F0EDED"/>
<path d="M13.7891 129.874C11.6372 129.99 9.30872 132.331 8.40595 135.279C7.76751 137.364 7.85381 139.324 8.66278 140.984C9.19498 142.084 9.82625 142.631 10.8761 142.864C11.8414 143.098 12.6964 142.915 13.7821 142.253C15.3164 141.315 16.4671 139.709 17.1137 137.597C17.744 135.539 17.6959 133.591 16.9805 131.992C16.4381 130.742 15.0128 129.813 13.7891 129.874Z" fill="#F0EDED"/>
<path d="M15.3207 144.83C13.9729 144.747 10.8251 145.277 8.96617 145.901C7.17033 146.503 4.48914 147.936 3.70856 148.7C2.25215 150.161 2.12448 152.592 3.41824 154.179C4.03078 154.925 5.0436 155.6 7.31233 156.795C11.3696 158.924 12.1439 159.783 13.7418 163.902C14.9912 167.099 15.6429 167.946 17.3001 168.484C19.9533 169.34 22.0687 166.825 23.3004 161.338C25.0826 153.458 24.1829 149.118 20.2299 146.512C18.8894 145.625 16.8461 144.929 15.3207 144.83Z" fill="#F0EDED"/>
<path d="M34.8567 151.654C32.6829 151.339 30.2184 152.156 28.2581 153.844C27.3469 154.623 26.7703 155.499 26.4288 156.615C25.7538 158.819 26.5114 160.418 28.6843 161.377C30.8913 162.362 34.2682 161.586 36.5036 159.595C38.5051 157.818 39.1704 155.508 38.2286 153.686C37.7188 152.697 36.324 151.851 34.8567 151.654Z" fill="#F0EDED"/>
<path d="M368.231 131.422C366.959 130.399 365.434 130.02 363.4 130.22C359.849 130.573 357.015 132.606 356.142 135.425C356.006 135.867 355.951 136.503 355.994 136.849C356.559 140.573 362.089 141.744 366.459 139.076C368.059 138.092 368.914 137.086 369.476 135.516C369.968 134.121 369.447 132.4 368.231 131.422Z" fill="#F0EDED"/>
<path d="M356.748 123.951C356.17 123.323 355.716 123.103 354.665 122.899C352.817 122.528 350.875 122.915 349.099 124.025C347.35 125.102 346.208 126.531 345.699 128.247C345.329 129.501 345.395 130.24 345.93 131.172C347.888 134.528 354.311 133.321 356.838 129.125C357.111 128.679 357.43 128.041 357.542 127.694C357.946 126.581 357.579 124.829 356.748 123.951Z" fill="#F0EDED"/>
<path d="M368.612 144.861C367.227 143.696 365.263 142.959 363.247 142.839C358.687 142.572 355.345 145.864 356.891 149.072C358.268 151.931 362.105 153.543 365.926 152.875C368.599 152.405 370.582 150.353 370.476 148.162C370.431 147.378 369.365 145.494 368.612 144.861Z" fill="#F0EDED"/>
<path d="M348.836 136.719C347.609 135.26 345.761 133.914 343.274 132.675C341.57 131.824 337.942 130.795 336.918 130.883C336.084 130.949 334.812 131.582 334.305 132.191C332.95 133.817 333.034 135.454 334.628 139.477C336.281 143.657 336.337 145.002 334.948 149.2C334.119 151.716 334.016 152.187 334.1 153.255C334.186 154.354 334.911 155.752 335.633 156.195C337.716 157.491 341.195 156.145 345.784 152.285C348.709 149.84 350.324 147.58 350.939 145.1C351.3 143.64 351.274 142.13 350.84 140.614C350.57 139.63 349.438 137.414 348.836 136.719Z" fill="#F0EDED"/>
<path d="M358.093 154.07C356.633 152.612 354.369 151.705 352.035 151.654C349.743 151.594 347.604 153.077 347.246 154.974C346.898 156.865 348.447 159.372 350.782 160.673C352.442 161.584 355.013 161.941 356.651 161.485C358.883 160.87 360.208 159.001 359.772 157.049C359.574 156.133 358.812 154.807 358.093 154.07Z" fill="#F0EDED"/>
<path d="M474.359 9.13044C473.25 8.77434 472.568 8.79327 471.272 9.18991C469.965 9.57978 468.515 10.5247 467.388 11.7215C466.488 12.6665 465.3 14.8963 465.117 15.9861C464.828 17.5891 465.026 19.1393 465.613 19.9584C466.177 20.7639 467.282 21.3258 468.403 21.4017C472.145 21.659 476.499 17.4703 476.756 13.3762C476.911 11.1058 476.104 9.69641 474.359 9.13044Z" fill="#F0EDED"/>
<path d="M460.074 8.41899C457.402 7.8733 453.94 10.5863 452.856 14.0563C452.253 16.0194 452.387 18.2343 453.214 19.4636C453.54 19.9402 453.742 20.1054 454.41 20.429C455.382 20.8974 456.145 20.957 457.188 20.6051C458.932 20.0541 460.302 18.8871 461.403 17.0215C462.515 15.1627 462.925 13.247 462.623 11.3177C462.44 10.1425 461.111 8.62211 460.074 8.41899Z" fill="#F0EDED"/>
<path d="M458.937 23.4685C456.342 22.6335 452.151 22.7867 448.742 23.824C446.629 24.4644 445.923 24.9004 445.262 25.9685C444.409 27.3399 444.346 28.691 445.067 30.0027C445.662 31.0653 446.418 31.8545 448.274 33.3299C451.815 36.117 452.552 37.3421 453.369 41.7714C453.846 44.3448 454.016 44.8579 454.591 45.6701C456.217 47.9524 458.428 47.959 460.557 45.6845C461.346 44.8343 462.475 42.8578 463.39 40.7405C464.887 37.2707 465.427 35.255 465.56 32.6842C465.688 30.2069 464.868 27.9611 463.187 26.1567C462.341 25.2511 460.134 23.8596 458.937 23.4685Z" fill="#F0EDED"/>
<path d="M475.786 33.837C473.794 33.4471 471.89 33.6663 470.134 34.4976C466.762 36.0977 465.55 39.4621 467.6 41.5769C469.267 43.2936 471.798 43.7892 474.613 42.9499C475.775 42.6033 476.312 42.3407 477.174 41.7247C478.234 40.9679 478.278 40.9138 478.838 39.8348C479.728 38.1343 479.698 36.8725 478.749 35.7001C478.192 35.0258 476.556 33.9968 475.786 33.837Z" fill="#F0EDED"/>
<path d="M83.82 153.453C83.1734 152.901 82.6982 152.739 81.6313 152.667C79.7541 152.529 77.8695 153.154 76.233 154.477C74.62 155.764 73.6495 157.325 73.3391 159.092C73.1152 160.383 73.2648 161.108 73.9026 161.967C76.2295 165.056 82.4692 163.059 84.4996 158.579C84.7196 158.101 84.9634 157.428 85.0355 157.07C85.3096 155.914 84.7449 154.221 83.82 153.453Z" fill="#F0EDED"/>
</svg>
